<svg width="80" height="81" viewBox="0 0 80 81" fill="none" xmlns="http://www.w3.org/2000/svg">
<path d="M39.9995 21.7165C40.6593 21.7165 41.1944 21.1815 41.1944 20.5217V14.4351C41.1944 13.7753 40.6595 13.2402 39.9995 13.2402C39.3396 13.2402 38.8047 13.7752 38.8047 14.4351V20.5217C38.8048 21.1815 39.3397 21.7165 39.9995 21.7165Z" fill="black"/>
<path d="M31.0161 23.6793C31.2433 24.0397 31.6312 24.2371 32.028 24.2371C32.2457 24.2371 32.4662 24.1776 32.6639 24.053C33.2222 23.7012 33.3895 22.9634 33.0377 22.4051L29.8541 17.3538C29.5022 16.7956 28.7644 16.6282 28.2063 16.9801C27.6481 17.3318 27.4808 18.0697 27.8326 18.628L31.0161 23.6793Z" fill="black"/>
<path d="M47.3396 24.0533C47.5374 24.1776 47.7576 24.237 47.9751 24.237C48.372 24.237 48.7602 24.0394 48.9873 23.6787L52.1676 18.6274C52.5191 18.069 52.3514 17.3314 51.793 16.9796C51.2343 16.6282 50.4969 16.796 50.1453 17.3542L46.9651 22.4054C46.6135 22.964 46.7813 23.7016 47.3396 24.0533Z" fill="black"/>
<path d="M70.2034 41.3707L68.1273 37.7031C67.8021 37.1287 67.073 36.9267 66.4991 37.252C65.9247 37.5771 65.7228 38.3061 66.0479 38.8802L68.123 42.5462C68.227 42.7305 68.2 42.9082 68.1746 42.9976C68.1503 43.0838 68.0831 43.2428 67.9075 43.3399L64.7079 45.1122C64.4236 45.2692 64.0526 45.17 63.8977 44.8966L63.0848 43.4587C63.0815 43.4523 63.0776 43.4463 63.0742 43.44L54.6708 28.5767C54.5669 28.3938 54.5932 28.2184 54.6181 28.1301C54.6421 28.0447 54.7088 27.8868 54.8844 27.7897L58.0878 26.017C58.3757 25.8576 58.7376 25.9544 58.8949 26.2333L60.7677 29.5422C61.0929 30.1165 61.8221 30.3184 62.3961 29.9935C62.9705 29.6685 63.1724 28.9394 62.8474 28.3651L60.9754 25.0577C60.177 23.6422 58.363 23.1345 56.9313 23.9259L53.728 25.6986C53.0349 26.0816 52.5341 26.7148 52.3181 27.4818C52.1143 28.2049 52.1872 28.9598 52.5209 29.6224L50.7563 30.1337C50.0046 30.3512 49.5484 30.4691 49.2953 30.4691C49.2942 30.4691 49.2932 30.4691 49.2923 30.4691C49.1179 30.4685 48.9278 30.402 48.3853 30.1965C48.1391 30.1033 47.8326 29.9871 47.4559 29.8557L44.3296 28.7628C42.6005 28.1589 41.8206 28.1914 40.6908 28.2945L35.3598 28.7716C32.9296 28.9869 31.3802 29.5351 30.525 30.4859L27.4869 29.6056C27.8138 28.9459 27.884 28.1983 27.6821 27.4818C27.466 26.7153 26.9656 26.0822 26.2732 25.6992L23.0717 23.9257C21.6388 23.1336 19.8237 23.6415 19.0252 25.0566L9.80049 41.3691C9.40559 42.0643 9.30786 42.873 9.52556 43.6462C9.74183 44.414 10.2425 45.0478 10.9343 45.4304L14.1358 47.2036C14.5935 47.4567 15.0908 47.5769 15.5815 47.5769C16.6241 47.5769 17.6375 47.0346 18.1823 46.0728L18.5205 45.4745C19.4437 45.8808 20.2188 46.4712 20.747 47.1702C20.2311 47.7731 19.9061 48.5171 19.8149 49.3264C19.6945 50.3967 19.9968 51.4467 20.6661 52.2837C21.3297 53.1135 22.2787 53.6371 23.3398 53.7604C23.2275 54.8215 23.531 55.8613 24.1952 56.689C24.8818 57.5474 25.8521 58.0481 26.8672 58.1663C26.7553 59.2259 27.0577 60.2647 27.7199 61.0928C28.3832 61.9245 29.3324 62.4491 30.3946 62.5724C30.2822 63.6344 30.5857 64.6748 31.2499 65.5026C32.0416 66.4924 33.2104 67.0077 34.3903 67.0076C35.2712 67.0076 36.1582 66.7204 36.8988 66.1289L39.4006 64.1271C39.5993 63.9685 39.7798 63.7932 39.9422 63.6044L41.3712 64.746C42.1103 65.3358 42.9953 65.6223 43.8749 65.6222C45.0554 65.6221 46.2262 65.1061 47.0189 64.1153C47.4368 63.593 47.7013 62.9967 47.8208 62.3813C48.2386 62.5258 48.6798 62.6005 49.1295 62.6004C49.2803 62.6004 49.4321 62.592 49.5843 62.5752C50.6549 62.4563 51.6122 61.9298 52.2774 61.0956C52.9428 60.2666 53.2463 59.227 53.1341 58.1659C54.1484 58.0475 55.1192 57.5469 55.8078 56.6889C56.4936 55.8313 56.7689 54.7755 56.6612 53.7602C57.7217 53.6366 58.6702 53.1131 59.3323 52.2852C60.0021 51.4505 60.3057 50.402 60.187 49.3326C60.097 48.5208 59.7717 47.7743 59.2548 47.1697C59.7815 46.471 60.5551 45.8799 61.4788 45.4737L61.8178 46.0733C62.3622 47.0347 63.3752 47.5768 64.4179 47.5768C64.9089 47.5767 65.4066 47.4565 65.8649 47.2032L69.0646 45.4307C69.7561 45.0484 70.2565 44.4156 70.4737 43.6491C70.6926 42.8766 70.5968 42.0679 70.2034 41.3707ZM16.1025 44.896C15.9472 45.1704 15.5759 45.2693 15.2929 45.1127L12.0915 43.3395C11.9167 43.2427 11.85 43.0843 11.8256 42.9984C11.8007 42.9093 11.774 42.7326 11.8794 42.5474L21.1056 26.2317C21.2112 26.0445 21.4103 25.9396 21.617 25.9396C21.7176 25.9396 21.8199 25.9643 21.9143 26.0165L25.1148 27.7894C25.1152 27.7897 25.1155 27.7899 25.1159 27.79C25.291 27.887 25.3576 28.0448 25.3817 28.1302C25.4066 28.2185 25.4329 28.3939 25.3278 28.5789L16.1025 44.896ZM24.8218 51.0447C24.4849 51.3147 24.0594 51.4366 23.6246 51.3883C23.1895 51.34 22.8018 51.128 22.5325 50.7913C22.2626 50.4538 22.1409 50.0284 22.1898 49.5937C22.2384 49.1608 22.4505 48.775 22.7891 48.5056L27.2624 44.9298C27.9645 44.3693 28.9922 44.4846 29.5533 45.1854C29.8231 45.5227 29.9449 45.9474 29.8961 46.3808C29.8476 46.8127 29.6354 47.1982 29.2987 47.466C29.2913 47.4719 29.2849 47.4785 29.2778 47.4846L24.8229 51.0439C24.8225 51.0441 24.8222 51.0445 24.8218 51.0447ZM26.0602 55.1949C25.7905 54.8588 25.6686 54.4353 25.7168 54.0022C25.7649 53.5689 25.9772 53.1813 26.3144 52.9109L26.3148 52.9106C26.315 52.9105 26.3153 52.9103 26.3155 52.9101C26.3156 52.9101 26.3156 52.91 26.3157 52.9099L32.7591 47.762C33.4611 47.2014 34.489 47.3158 35.05 48.0176C35.3194 48.3544 35.4412 48.7786 35.393 49.2118C35.3448 49.6456 35.1318 50.0332 34.7938 50.3032L28.3521 55.4492C27.6493 56.0101 26.6217 55.8969 26.0602 55.1949ZM30.6792 60.2002C30.2443 60.1519 29.8569 59.9397 29.5872 59.6016C29.3178 59.2647 29.1961 58.8406 29.2442 58.4073C29.2925 57.9739 29.505 57.5867 29.8426 57.3166C29.8428 57.3164 29.8432 57.3162 29.8434 57.3159L34.3024 53.7538C34.3076 53.7498 34.3134 53.7463 34.3186 53.7421C35.0188 53.1816 36.0464 53.2957 36.608 53.9957C36.8779 54.3331 36.9996 54.7585 36.9508 55.1931C36.902 55.626 36.6899 56.0119 36.3514 56.2813L31.8783 59.8569C31.5402 60.1268 31.1143 60.2482 30.6792 60.2002ZM38.5077 61.1702C38.4593 61.6035 38.2469 61.9903 37.9088 62.2603L35.4069 64.2626C34.704 64.8235 33.6764 64.7106 33.115 64.0085C32.8454 63.6727 32.7234 63.2487 32.7715 62.8149C32.8197 62.381 33.0318 61.994 33.3684 61.7252C33.3687 61.7249 33.3692 61.7246 33.3695 61.7243L35.8709 59.7249C35.8722 59.7238 35.8736 59.7229 35.8749 59.722C36.5771 59.1616 37.6048 59.2764 38.1659 59.9776C38.4346 60.3138 38.5562 60.7371 38.5077 61.1702ZM57.4673 50.7912C57.198 51.1279 56.8102 51.34 56.3752 51.3883C55.9407 51.4371 55.5149 51.3148 55.178 51.0447C55.1779 51.0446 55.1776 51.0445 55.1774 51.0444C55.1773 51.0443 55.177 51.0441 55.1769 51.044L51.9797 48.4895C51.464 48.0776 50.7122 48.1617 50.3005 48.6771C49.8886 49.1926 49.9726 49.9445 50.4881 50.3564L53.6842 52.91C54.3853 53.4715 54.5009 54.4971 53.9429 55.1948C53.3799 55.8964 52.3522 56.0105 51.6505 55.4486L48.1825 52.6811C47.6668 52.2696 46.915 52.3541 46.5034 52.8698C46.0919 53.3855 46.1762 54.1373 46.692 54.5489L50.1584 57.3151C50.4962 57.5856 50.7088 57.9734 50.757 58.4073C50.8052 58.8403 50.6833 59.264 50.4114 59.6027C50.1426 59.9397 49.7553 60.1518 49.3205 60.2002C48.8852 60.2481 48.4592 60.1266 48.1225 59.8578L46.3969 58.4778C46.3939 58.4754 46.3913 58.4729 46.3883 58.4705L44.9303 57.3049L44.6578 57.087C44.1422 56.6748 43.3904 56.7585 42.9784 57.2737C42.9269 57.3383 42.8831 57.4064 42.847 57.4771C42.674 57.8153 42.6769 58.2118 42.8392 58.5443C42.9144 58.6984 43.0226 58.839 43.1653 58.9531L44.9004 60.3407C45.5968 60.9031 45.7107 61.9253 45.1531 62.6225C44.5918 63.324 43.564 63.4386 42.8623 62.8788L40.8938 61.3061C40.9757 60.2835 40.6727 59.2861 40.0318 58.4847C39.6334 57.9868 39.1394 57.6097 38.5968 57.3568C38.9944 56.8051 39.2469 56.157 39.3253 55.4602C39.4457 54.3901 39.1434 53.34 38.4729 52.5016C38.0744 52.005 37.5809 51.6288 37.0394 51.3764C37.4378 50.8231 37.6903 50.1737 37.7679 49.4759C37.8868 48.4082 37.5843 47.3602 36.9161 46.5246C35.7664 45.0872 33.8222 44.6502 32.204 45.3371C32.0744 44.7423 31.8098 44.1812 31.4191 43.6926C30.0357 41.9639 27.5023 41.681 25.7709 43.0625L22.5716 45.6199C21.8481 44.6966 20.8646 43.9309 19.7018 43.3849L26.2829 31.7445L29.7869 32.7598C29.8029 32.9473 29.8333 33.1444 29.884 33.3533C30.7323 36.8408 33.9433 38.4658 38.2643 37.5951C41.905 36.8626 43.4038 37.9538 46.3889 40.1276C46.6986 40.3531 47.0204 40.5874 47.3572 40.8286C49.504 42.3688 51.7981 44.1791 53.3362 45.4061L57.2147 48.5058C57.5517 48.7746 57.7638 49.1618 57.8119 49.596C57.8601 50.0298 57.7382 50.4538 57.4673 50.7912ZM57.4302 45.6192L54.8274 43.539C53.268 42.2951 50.9415 40.4594 48.7496 38.8868C48.4174 38.6489 48.1006 38.4181 47.7957 38.1961C44.7003 35.942 42.4632 34.3135 37.7928 35.2527C36.3633 35.5408 32.9574 35.8776 32.2062 32.7892C32.1004 32.3532 32.2079 32.2034 32.2537 32.1394C32.4134 31.9167 33.0563 31.3746 35.5713 31.1519L40.9079 30.6743C41.7775 30.595 42.2137 30.5551 43.541 31.0187L46.6677 32.1117C47.0152 32.2331 47.2932 32.3383 47.5385 32.4312C49.044 33.0015 49.4429 33.0014 51.4208 32.4289L53.7259 31.761L60.2982 43.3856C59.135 43.9313 58.1525 44.6964 57.4302 45.6192Z" fill="black"/>
<path d="M64.4429 34.8183C65.1027 34.8183 65.6378 34.2815 65.6378 33.6216C65.6378 32.9617 65.1027 32.4268 64.4429 32.4268C63.7831 32.4268 63.248 32.9618 63.248 33.6216V33.625C63.248 34.2849 63.7831 34.8183 64.4429 34.8183Z" fill="black"/>
</svg>
